<svg width="24" height="25" viewBox="0 0 24 25" fill="none" xmlns="http://www.w3.org/2000/svg">
    <path fill-rule="evenodd" clip-rule="evenodd" d="M3.9826 11.6183C4.60828 11.6183 5.11549 12.1264 5.11549 12.7531V23.8652C5.11549 24.4919 4.60828 25 3.9826 25H1.9483C1.60323 25 1.28302 24.831 1.08729 24.5527L1.01992 24.4434C0.339974 23.173 0 21.1282 0 18.3091C0 15.5561 0.324241 13.5415 0.972724 12.2654L1.08381 12.0596C1.24029 11.7866 1.53054 11.6183 1.84478 11.6183H3.9826ZM12.156 0.00761594C14.7645 0.348219 16.0687 2.01757 16.0687 5.01567C16.0687 5.62163 15.9057 6.9777 15.5796 9.08388C20.8973 9.19497 23.4034 10.1384 23.4034 11.9143C23.4034 12.3519 23.2913 12.7709 22.7617 13.1714C23.5872 13.6761 24 14.3946 24 15.3271C24 16.2595 23.5254 17.0221 22.5762 17.6148C23.0328 18.1306 23.2038 18.7325 23.0891 19.4205C22.9745 20.1084 22.455 20.6254 21.5308 20.9713C21.9798 22.9147 19.7908 23.8864 14.964 23.8864C7.85305 23.8864 7.18481 22.1039 7.16322 20.5009L7.16264 14.0401C7.08978 12.5657 7.51995 11.3273 8.45317 10.3249L8.64653 10.1276C10.3 8.52263 11.1936 6.918 11.3273 5.31371L11.1334 0.948153C11.1112 0.447279 11.4985 0.0231787 11.9986 0.000896938C12.0511 -0.00144561 12.1038 0.000802556 12.156 0.00761594Z" fill="#0584FE"/>
</svg>
