<svg width="24" height="24" viewBox="0 0 24 24" fill="none" xmlns="http://www.w3.org/2000/svg">
    <path fill-rule="evenodd" clip-rule="evenodd" d="M9.87815 13.9919L10.0081 14.1218C12.2457 16.2882 14.1184 17.3056 15.6261 17.174L16.0605 16.7687C16.6785 16.2064 17.1444 15.85 17.4584 15.6994C18.112 15.3859 18.5707 15.3922 19.8094 16.0625C21.439 16.9442 22.5642 17.9691 23.1392 18.5441C23.6731 19.078 23.5072 19.9977 23.3197 20.4057L23.1955 20.6333C22.8619 21.2129 21.6521 23.1249 19.3334 23.4521C18.4523 23.5764 17.3399 23.4624 16.0357 23.0696C13.2419 22.1024 10.4598 20.3297 7.68932 17.7514L7.19661 17.2834L7.19197 17.288L6.95419 17.046L6.71199 16.808L6.71664 16.8034L6.24857 16.3107C3.67035 13.5402 1.89763 10.7581 0.930416 7.96428C0.537607 6.66006 0.423627 5.54772 0.547946 4.66655C0.89822 2.18383 3.06566 0.972407 3.46871 0.746715L3.50964 0.723616C3.85849 0.522447 4.88095 0.285854 5.45591 0.860816L5.72814 1.14078C6.32079 1.76756 7.18177 2.79378 7.93755 4.19059C8.6078 5.42934 8.61405 5.88801 8.30058 6.54161C8.11655 6.92534 7.625 7.53612 6.82595 8.37394C6.69439 9.88161 7.71179 11.7543 9.87815 13.9919Z" fill="#0584FE"/>
</svg>
