<svg width="22" height="22" viewBox="0 0 22 22" fill="none" xmlns="http://www.w3.org/2000/svg">
    <path fill-rule="evenodd" clip-rule="evenodd" d="M18 0C20.2091 0 22 1.79086 22 4V18C22 20.2091 20.2091 22 18 22H4C1.79086 22 0 20.2091 0 18V4C0 1.79086 1.79086 0 4 0H18ZM18 2H4C2.89543 2 2 2.89543 2 4V14.4655C2 14.5759 2.08954 14.6655 2.2 14.6655C2.23122 14.6655 2.26201 14.6582 2.2899 14.6441L8.3036 11.618C9.9999 10.7641 12.0003 10.7636 13.697 11.6168L19.7102 14.6403C19.8088 14.6899 19.9291 14.6501 19.9787 14.5514C19.9927 14.5236 20 14.4928 20 14.4616V4C20 2.89543 19.1046 2 18 2ZM6.5 4C7.88071 4 9 5.11929 9 6.5C9 7.88071 7.88071 9 6.5 9C5.11929 9 4 7.88071 4 6.5C4 5.11929 5.11929 4 6.5 4Z" fill="#0584FE"/>
</svg>
