<svg width="16" height="17" viewBox="0 0 16 17" fill="none" xmlns="http://www.w3.org/2000/svg">
    <path fill-rule="evenodd" clip-rule="evenodd" d="M12.6 7.10005C12.6 3.62066 9.77939 0.800049 6.3 0.800049C2.82061 0.800049 0 3.62066 0 7.10005C0 10.5794 2.82061 13.4 6.3 13.4C7.66364 13.4 8.92609 12.9668 9.95721 12.2304L13.9648 16.2377L14.057 16.3182C14.4098 16.5867 14.9154 16.5598 15.2376 16.2377C15.5891 15.8862 15.5891 15.3163 15.2376 14.9649L11.2589 10.9863C12.099 9.9158 12.6 8.56643 12.6 7.10005ZM1.2 7.10005C1.2 4.2834 3.48335 2.00005 6.3 2.00005C9.11665 2.00005 11.4 4.2834 11.4 7.10005C11.4 9.9167 9.11665 12.2 6.3 12.2C3.48335 12.2 1.2 9.9167 1.2 7.10005Z" fill="#8E8E93"/>
</svg>
